<svg width="102" height="86" viewBox="0 0 102 86" fill="none" xmlns="http://www.w3.org/2000/svg">
<path d="M70.125 0C63.6225 0 58.0125 3.72024 54.57 9.35374C60.3075 15.0935 63.75 22.9592 63.75 31.994C63.75 35.0765 63.3675 37.8401 62.6025 40.6037C65.025 41.773 67.4475 42.6233 70.125 42.6233C80.7075 42.6233 89.25 33.057 89.25 21.3648C89.25 9.67262 80.7075 0.106293 70.125 0.106293V0ZM31.875 10.6293C21.2925 10.6293 12.75 20.1956 12.75 31.8878C12.75 43.5799 21.2925 53.1463 31.875 53.1463C42.4575 53.1463 51 43.5799 51 31.8878C51 20.1956 42.4575 10.6293 31.875 10.6293ZM92.4375 44.2177C86.955 49.6386 79.4325 52.9337 70.89 53.1463C74.3325 57.1854 76.5 62.0748 76.5 67.3895V74.4048H102V56.7602C102 51.233 98.0475 46.4498 92.4375 44.1114V44.2177ZM9.5625 54.8469C3.9525 57.1854 0 61.9685 0 67.4957V85.1403H63.75V67.4957C63.75 61.9685 59.7975 57.1854 54.1875 54.8469C48.45 60.4804 40.6725 63.7755 31.875 63.7755C23.0775 63.7755 15.3 60.3741 9.5625 54.8469Z" fill="white"/>
</svg>

