<svg width="51" height="38" viewBox="0 0 51 38" fill="none" xmlns="http://www.w3.org/2000/svg">
<g opacity="0.2">
<path d="M23.6601 9.9373C23.6601 12.0458 22.7751 14.0679 21.1998 15.5588C19.6245 17.0497 17.4879 17.8873 15.2601 17.8873C13.0323 17.8873 10.8957 17.0497 9.32041 15.5588C7.74511 14.0679 6.86011 12.0458 6.86011 9.9373C6.86011 7.82883 7.74511 5.80672 9.32041 4.31581C10.8957 2.82489 13.0323 1.9873 15.2601 1.9873C17.4879 1.9873 19.6245 2.82489 21.1998 4.31581C22.7751 5.80672 23.6601 7.82883 23.6601 9.9373Z" fill="#F5A853"/>
<path fill-rule="evenodd" clip-rule="evenodd" d="M15.2601 12.5873C16.0027 12.5873 16.7149 12.3081 17.24 11.8111C17.7651 11.3142 18.0601 10.6401 18.0601 9.9373C18.0601 9.23448 17.7651 8.56044 17.24 8.06347C16.7149 7.5665 16.0027 7.2873 15.2601 7.2873C14.5175 7.2873 13.8053 7.5665 13.2802 8.06347C12.7551 8.56044 12.4601 9.23448 12.4601 9.9373C12.4601 10.6401 12.7551 11.3142 13.2802 11.8111C13.8053 12.3081 14.5175 12.5873 15.2601 12.5873ZM15.2601 17.8873C16.3632 17.8873 17.4555 17.6817 18.4746 17.2821C19.4938 16.8826 20.4198 16.297 21.1998 15.5588C21.9798 14.8206 22.5986 13.9442 23.0207 12.9796C23.4428 12.0151 23.6601 10.9813 23.6601 9.9373C23.6601 8.8933 23.4428 7.85951 23.0207 6.89497C22.5986 5.93043 21.9798 5.05403 21.1998 4.31581C20.4198 3.57758 19.4938 2.99199 18.4746 2.59246C17.4555 2.19294 16.3632 1.9873 15.2601 1.9873C13.0323 1.9873 10.8957 2.82489 9.32041 4.31581C7.74511 5.80672 6.86011 7.82883 6.86011 9.9373C6.86011 12.0458 7.74511 14.0679 9.32041 15.5588C10.8957 17.0497 13.0323 17.8873 15.2601 17.8873Z" fill="#F5A853"/>
<path fill-rule="evenodd" clip-rule="evenodd" d="M15.4001 19.8752C14.2862 19.8752 13.2179 20.294 12.4302 21.0394C11.6426 21.7849 11.2001 22.796 11.2001 23.8502V27.8252C11.2001 28.528 10.9051 29.2021 10.38 29.699C9.85489 30.196 9.1427 30.4752 8.4001 30.4752C7.65749 30.4752 6.9453 30.196 6.4202 29.699C5.8951 29.2021 5.6001 28.528 5.6001 27.8252V23.8502C5.6001 21.3903 6.63259 19.0312 8.47045 17.2918C10.3083 15.5524 12.801 14.5752 15.4001 14.5752C17.9992 14.5752 20.4919 15.5524 22.3297 17.2918C24.1676 19.0312 25.2001 21.3903 25.2001 23.8502V25.1752C25.2001 25.878 24.9051 26.5521 24.38 27.049C23.8549 27.546 23.1427 27.8252 22.4001 27.8252C21.6575 27.8252 20.9453 27.546 20.4202 27.049C19.8951 26.5521 19.6001 25.878 19.6001 25.1752V23.8502C19.6001 22.796 19.1576 21.7849 18.3699 21.0394C17.5823 20.294 16.514 19.8752 15.4001 19.8752Z" fill="#F5A853"/>
<path d="M32.0601 9.9373C32.0601 12.0458 32.9451 14.0679 34.5204 15.5588C36.0957 17.0497 38.2322 17.8873 40.4601 17.8873C42.6879 17.8873 44.8245 17.0497 46.3998 15.5588C47.9751 14.0679 48.8601 12.0458 48.8601 9.9373C48.8601 7.82883 47.9751 5.80672 46.3998 4.31581C44.8245 2.82489 42.6879 1.9873 40.4601 1.9873C38.2322 1.9873 36.0957 2.82489 34.5204 4.31581C32.9451 5.80672 32.0601 7.82883 32.0601 9.9373Z" fill="#F5A853"/>
<path fill-rule="evenodd" clip-rule="evenodd" d="M40.4601 12.5873C39.7175 12.5873 39.0053 12.3081 38.4802 11.8111C37.9551 11.3142 37.6601 10.6401 37.6601 9.9373C37.6601 9.23448 37.9551 8.56044 38.4802 8.06347C39.0053 7.5665 39.7175 7.2873 40.4601 7.2873C41.2027 7.2873 41.9149 7.5665 42.44 8.06347C42.9651 8.56044 43.2601 9.23448 43.2601 9.9373C43.2601 10.6401 42.9651 11.3142 42.44 11.8111C41.9149 12.3081 41.2027 12.5873 40.4601 12.5873ZM40.4601 17.8873C39.357 17.8873 38.2647 17.6817 37.2455 17.2821C36.2264 16.8826 35.3004 16.297 34.5204 15.5588C33.7403 14.8206 33.1216 13.9442 32.6995 12.9796C32.2773 12.0151 32.0601 10.9813 32.0601 9.9373C32.0601 8.8933 32.2773 7.85951 32.6995 6.89497C33.1216 5.93043 33.7403 5.05403 34.5204 4.31581C35.3004 3.57758 36.2264 2.99199 37.2455 2.59246C38.2647 2.19294 39.357 1.9873 40.4601 1.9873C42.6879 1.9873 44.8245 2.82489 46.3998 4.31581C47.9751 5.80672 48.8601 7.82883 48.8601 9.9373C48.8601 12.0458 47.9751 14.0679 46.3998 15.5588C44.8245 17.0497 42.6879 17.8873 40.4601 17.8873Z" fill="#F5A853"/>
<path fill-rule="evenodd" clip-rule="evenodd" d="M40.3201 19.8752C41.4341 19.8752 42.5023 20.294 43.29 21.0394C44.0776 21.7849 44.5201 22.796 44.5201 23.8502V27.8252C44.5201 28.528 44.8151 29.2021 45.3402 29.699C45.8653 30.196 46.5775 30.4752 47.3201 30.4752C48.0627 30.4752 48.7749 30.196 49.3 29.699C49.8251 29.2021 50.1201 28.528 50.1201 27.8252V23.8502C50.1201 21.3903 49.0876 19.0312 47.2498 17.2918C45.4119 15.5524 42.9193 14.5752 40.3201 14.5752C37.721 14.5752 35.2284 15.5524 33.3905 17.2918C31.5526 19.0312 30.5201 21.3903 30.5201 23.8502V25.1752C30.5201 25.878 30.8151 26.5521 31.3402 27.049C31.8653 27.546 32.5775 27.8252 33.3201 27.8252C34.0627 27.8252 34.7749 27.546 35.3 27.049C35.8251 26.5521 36.1201 25.878 36.1201 25.1752V23.8502C36.1201 22.796 36.5626 21.7849 37.3503 21.0394C38.1379 20.294 39.2062 19.8752 40.3201 19.8752Z" fill="#F5A853"/>
<path fill-rule="evenodd" clip-rule="evenodd" d="M28.0001 27.1623C26.8862 27.1623 25.8179 27.5811 25.0302 28.3266C24.2426 29.072 23.8001 30.0831 23.8001 31.1373V35.1123C23.8001 35.8151 23.5051 36.4892 22.98 36.9861C22.4549 37.4831 21.7427 37.7623 21.0001 37.7623C20.2575 37.7623 19.5453 37.4831 19.0202 36.9861C18.4951 36.4892 18.2001 35.8151 18.2001 35.1123V31.1373C18.2001 28.6774 19.2326 26.3183 21.0704 24.5789C22.9083 22.8395 25.401 21.8623 28.0001 21.8623C30.5992 21.8623 33.0919 22.8395 34.9297 24.5789C36.7676 26.3183 37.8001 28.6774 37.8001 31.1373V35.1123C37.8001 35.8151 37.5051 36.4892 36.98 36.9861C36.4549 37.4831 35.7427 37.7623 35.0001 37.7623C34.2575 37.7623 33.5453 37.4831 33.0202 36.9861C32.4951 36.4892 32.2001 35.8151 32.2001 35.1123V31.1373C32.2001 30.0831 31.7576 29.072 30.9699 28.3266C30.1823 27.5811 29.114 27.1623 28.0001 27.1623Z" fill="#F5A853"/>
<path d="M36.2601 17.2244C36.2601 19.3329 35.3751 21.355 33.7998 22.8459C32.2245 24.3368 30.0879 25.1744 27.8601 25.1744C25.6323 25.1744 23.4957 24.3368 21.9204 22.8459C20.3451 21.355 19.4601 19.3329 19.4601 17.2244C19.4601 15.1159 20.3451 13.0938 21.9204 11.6029C23.4957 10.112 25.6323 9.27441 27.8601 9.27441C30.0879 9.27441 32.2245 10.112 33.7998 11.6029C35.3751 13.0938 36.2601 15.1159 36.2601 17.2244Z" fill="#F5A853"/>
<path fill-rule="evenodd" clip-rule="evenodd" d="M27.8601 19.8744C28.6027 19.8744 29.3149 19.5952 29.84 19.0982C30.3651 18.6013 30.6601 17.9272 30.6601 17.2244C30.6601 16.5216 30.3651 15.8476 29.84 15.3506C29.3149 14.8536 28.6027 14.5744 27.8601 14.5744C27.1175 14.5744 26.4053 14.8536 25.8802 15.3506C25.3551 15.8476 25.0601 16.5216 25.0601 17.2244C25.0601 17.9272 25.3551 18.6013 25.8802 19.0982C26.4053 19.5952 27.1175 19.8744 27.8601 19.8744ZM27.8601 25.1744C30.0879 25.1744 32.2245 24.3368 33.7998 22.8459C35.3751 21.355 36.2601 19.3329 36.2601 17.2244C36.2601 15.1159 35.3751 13.0938 33.7998 11.6029C32.2245 10.112 30.0879 9.27441 27.8601 9.27441C25.6323 9.27441 23.4957 10.112 21.9204 11.6029C20.3451 13.0938 19.4601 15.1159 19.4601 17.2244C19.4601 19.3329 20.3451 21.355 21.9204 22.8459C23.4957 24.3368 25.6323 25.1744 27.8601 25.1744Z" fill="#F5A853"/>
<path d="M8.26013 19.875H22.2601V30.475H8.26013V19.875ZM33.4601 19.875H47.4601V30.475H33.4601V19.875Z" fill="#F5A853"/>
<path d="M22.2601 25.1748H33.4601L34.8601 37.7623H20.8601L22.2601 25.1748Z" fill="#F5A853"/>
</g>
<path fill-rule="evenodd" clip-rule="evenodd" d="M10.3601 13.25C11.8453 13.25 13.2697 12.6916 14.3199 11.6977C15.3701 10.7037 15.9601 9.35565 15.9601 7.95C15.9601 6.54435 15.3701 5.19628 14.3199 4.20233C13.2697 3.20839 11.8453 2.65 10.3601 2.65C8.87487 2.65 7.45049 3.20839 6.40028 4.20233C5.35008 5.19628 4.76008 6.54435 4.76008 7.95C4.76008 9.35565 5.35008 10.7037 6.40028 11.6977C7.45049 12.6916 8.87487 13.25 10.3601 13.25ZM10.3601 15.9C11.4632 15.9 12.5555 15.6944 13.5746 15.2948C14.5938 14.8953 15.5198 14.3097 16.2998 13.5715C17.0798 12.8333 17.6985 11.9569 18.1207 10.9923C18.5428 10.0278 18.7601 8.99401 18.7601 7.95C18.7601 6.90599 18.5428 5.8722 18.1207 4.90767C17.6985 3.94313 17.0798 3.06673 16.2998 2.3285C15.5198 1.59028 14.5938 1.00468 13.5746 0.605158C12.5555 0.205633 11.4632 -1.55569e-08 10.3601 0C8.13226 3.14187e-08 5.99569 0.837587 4.42039 2.3285C2.84508 3.81942 1.96008 5.84153 1.96008 7.95C1.96008 10.0585 2.84508 12.0806 4.42039 13.5715C5.99569 15.0624 8.13226 15.9 10.3601 15.9Z" fill="#F5A853"/>
<path fill-rule="evenodd" clip-rule="evenodd" d="M7.15126 12.9743C7.28164 13.0974 7.38508 13.2436 7.45565 13.4046C7.52623 13.5656 7.56256 13.7381 7.56256 13.9124C7.56256 14.0867 7.52623 14.2593 7.45565 14.4202C7.38508 14.5812 7.28164 14.7274 7.15126 14.8505L6.20486 15.7436C4.38356 17.4678 3.3603 19.8059 3.36006 22.244V27.1624C3.36006 27.5138 3.21256 27.8508 2.95001 28.0993C2.68746 28.3478 2.33136 28.4874 1.96006 28.4874C1.58876 28.4874 1.23266 28.3478 0.970109 28.0993C0.707558 27.8508 0.560059 27.5138 0.560059 27.1624V22.244C0.560456 19.1032 1.87882 16.0911 4.22526 13.87L5.16886 12.9743C5.29891 12.8509 5.4534 12.753 5.62348 12.6862C5.79357 12.6194 5.97591 12.585 6.16006 12.585C6.34421 12.585 6.52655 12.6194 6.69663 12.6862C6.86672 12.753 7.02121 12.8509 7.15126 12.9743ZM40.1689 12.1793C40.0385 12.3024 39.935 12.4486 39.8645 12.6096C39.7939 12.7706 39.7576 12.9431 39.7576 13.1174C39.7576 13.2917 39.7939 13.4643 39.8645 13.6252C39.935 13.7862 40.0385 13.9324 40.1689 14.0555L41.1153 14.9486C42.0172 15.8022 42.7327 16.8157 43.2208 17.931C43.7089 19.0464 43.9601 20.2418 43.9601 21.449V27.1624C43.9601 27.5138 44.1076 27.8508 44.3701 28.0993C44.6327 28.3478 44.9888 28.4874 45.3601 28.4874C45.7314 28.4874 46.0875 28.3478 46.35 28.0993C46.6126 27.8508 46.7601 27.5138 46.7601 27.1624V21.449C46.7597 18.3082 45.4413 15.2961 43.0949 13.075L42.1513 12.1793C42.0212 12.0559 41.8667 11.958 41.6966 11.8912C41.5265 11.8244 41.3442 11.79 41.1601 11.79C40.9759 11.79 40.7936 11.8244 40.6235 11.8912C40.4534 11.958 40.2989 12.0559 40.1689 12.1793Z" fill="#F5A853"/>
<path fill-rule="evenodd" clip-rule="evenodd" d="M35.56 13.25C34.0748 13.25 32.6504 12.6916 31.6002 11.6977C30.55 10.7037 29.96 9.35565 29.96 7.95C29.96 6.54435 30.55 5.19628 31.6002 4.20233C32.6504 3.20839 34.0748 2.65 35.56 2.65C37.0452 2.65 38.4696 3.20839 39.5198 4.20233C40.57 5.19628 41.16 6.54435 41.16 7.95C41.16 9.35565 40.57 10.7037 39.5198 11.6977C38.4696 12.6916 37.0452 13.25 35.56 13.25ZM35.56 15.9C34.4569 15.9 33.3646 15.6944 32.3455 15.2948C31.3264 14.8953 30.4003 14.3097 29.6203 13.5715C28.8403 12.8333 28.2216 11.9569 27.7994 10.9923C27.3773 10.0278 27.16 8.99401 27.16 7.95C27.16 6.90599 27.3773 5.8722 27.7994 4.90767C28.2216 3.94313 28.8403 3.06673 29.6203 2.3285C30.4003 1.59028 31.3264 1.00468 32.3455 0.605158C33.3646 0.205633 34.4569 -1.55569e-08 35.56 0C37.7879 3.14187e-08 39.9244 0.837587 41.4997 2.3285C43.075 3.81942 43.96 5.84153 43.96 7.95C43.96 10.0585 43.075 12.0806 41.4997 13.5715C39.9244 15.0624 37.7879 15.9 35.56 15.9ZM22.96 24.5125C21.1035 24.5125 19.323 25.2105 18.0103 26.4529C16.6975 27.6953 15.96 29.3804 15.96 31.1375V34.5825C15.96 34.9339 15.8125 35.2709 15.55 35.5194C15.2874 35.7679 14.9313 35.9075 14.56 35.9075C14.1887 35.9075 13.8326 35.7679 13.5701 35.5194C13.3075 35.2709 13.16 34.9339 13.16 34.5825V31.1375C13.16 28.6776 14.1925 26.3185 16.0304 24.5791C17.8682 22.8397 20.3609 21.8625 22.96 21.8625C25.5592 21.8625 28.0518 22.8397 29.8897 24.5791C31.7275 26.3185 32.76 28.6776 32.76 31.1375V34.5825C32.76 34.9339 32.6125 35.2709 32.35 35.5194C32.0874 35.7679 31.7313 35.9075 31.36 35.9075C30.9887 35.9075 30.6326 35.7679 30.3701 35.5194C30.1075 35.2709 29.96 34.9339 29.96 34.5825V31.1375C29.96 30.2675 29.779 29.406 29.4272 28.6022C29.0754 27.7984 28.5598 27.0681 27.9098 26.4529C27.2598 25.8377 26.4881 25.3497 25.6388 25.0168C24.7895 24.6839 23.8793 24.5125 22.96 24.5125Z" fill="#F5A853"/>
<path fill-rule="evenodd" clip-rule="evenodd" d="M22.9601 20.5371C24.4453 20.5371 25.8697 19.9787 26.9199 18.9848C27.9701 17.9908 28.5601 16.6428 28.5601 15.2371C28.5601 13.8315 27.9701 12.4834 26.9199 11.4894C25.8697 10.4955 24.4453 9.93711 22.9601 9.93711C21.4748 9.93711 20.0505 10.4955 19.0003 11.4894C17.9501 12.4834 17.3601 13.8315 17.3601 15.2371C17.3601 16.6428 17.9501 17.9908 19.0003 18.9848C20.0505 19.9787 21.4748 20.5371 22.9601 20.5371ZM22.9601 23.1871C25.1879 23.1871 27.3245 22.3495 28.8998 20.8586C30.4751 19.3677 31.3601 17.3456 31.3601 15.2371C31.3601 13.1286 30.4751 11.1065 28.8998 9.61561C27.3245 8.1247 25.1879 7.28711 22.9601 7.28711C20.7322 7.28711 18.5957 8.1247 17.0204 9.61561C15.4451 11.1065 14.5601 13.1286 14.5601 15.2371C14.5601 17.3456 15.4451 19.3677 17.0204 20.8586C18.5957 22.3495 20.7322 23.1871 22.9601 23.1871Z" fill="#F5A853"/>
</svg>
