<?xml version="1.0" encoding="utf-8"?>
<svg viewBox="59.9704 71.4966 330.7876 264.4505" xmlns="http://www.w3.org/2000/svg">
  <path class="cls-20" d="M 305.872 134.38 C 305.9 151.306 305.936 168.234 305.945 185.159 C 305.945 191.669 305.885 198.176 305.852 204.683 C 304.877 204.591 304.866 203.822 304.833 203.138 C 304.524 195.944 304.627 188.745 304.969 181.556 C 305.091 179.046 304.817 176.569 304.843 174.085 C 304.932 166.749 305.234 159.412 305.099 153.22 C 305.07 164.654 305.191 177.253 304.696 189.83 C 304.367 198.159 305.671 206.393 305.363 214.684 C 305.139 220.548 305.792 226.472 304.181 232.265 C 303.32 235.361 305.01 238.305 305.006 241.445 C 304.993 246.926 305.601 252.381 304.69 257.881 C 304.379 259.758 304.955 261.841 305.168 263.814 C 305.481 266.72 305.885 269.738 305.28 272.491 C 303.562 280.296 305.608 287.984 305.387 295.718 C 305.205 301.908 305.382 308.11 304.534 314.269 C 304.117 317.285 305.067 320.235 305.044 323.222 C 304.917 341.94 305.622 360.649 305.395 379.365 C 305.389 380.078 305.404 380.792 305.341 381.505 C 304.857 383.931 304.987 386.361 305.375 388.787 C 305.349 398.342 305.533 407.894 305.283 417.446 C 304.149 420.039 301.912 419.912 299.734 419.532 C 297.984 419.227 297.346 417.943 297.728 416.199 C 300.068 414.43 299.467 411.551 300.318 409.217 C 301.176 407.543 301.282 405.658 301.05 403.936 C 300.028 396.393 301.236 388.796 300.364 381.25 C 299.97 377.851 300.56 374.463 301.254 371.125 C 301.355 370.633 301.504 370.146 301.452 369.649 C 299.794 353.118 300.371 336.529 300.351 319.961 C 300.287 263.142 300.263 206.323 300.371 149.504 C 300.402 133.19 300.001 116.877 300.5 100.568 C 300.631 96.139 300.526 96.136 296.03 96.136 C 291.428 96.136 286.826 96.136 282.226 96.136 C 281.014 96.136 279.808 96.116 278.881 97.077 C 277.855 98.267 278.066 99.71 278.063 101.101 C 278.052 113.622 278.09 126.142 278.026 138.66 C 278.014 140.417 278.749 143.256 276.121 143.26 C 273.574 143.26 274.579 140.459 274.57 138.897 C 274.472 126.179 274.518 113.459 274.515 100.735 C 274.515 96.541 274.101 96.145 269.85 96.145 C 241.359 96.145 212.87 96.145 184.372 96.145 C 183.183 96.145 181.964 95.974 180.858 96.591 C 180.595 96.821 180.335 97.054 180.116 97.33 C 179.409 98.43 179.604 99.655 179.604 100.842 C 179.592 120.334 179.592 139.829 179.604 159.318 C 179.604 160.705 179.379 162.15 180.502 163.276 C 181.825 164.285 183.382 163.969 184.844 163.973 C 196.229 164.006 207.612 163.988 218.997 163.992 C 220.592 163.992 222.191 163.923 223.771 164.256 C 227.738 166.04 231.752 164.559 235.746 164.41 C 236.457 164.288 237.162 164.309 237.877 164.429 C 238.561 164.538 239.229 164.774 239.937 164.761 C 248.297 164.593 256.62 165.761 264.995 165.411 C 267.461 165.307 269.902 164.265 272.388 165.154 C 273.605 165.591 275.232 165.739 274.547 167.777 C 272.898 168.781 271.058 168.505 269.287 168.507 C 241.327 168.527 213.368 168.507 185.411 168.542 C 183.757 168.542 181.998 168.139 180.502 169.278 C 179.422 170.435 179.607 171.878 179.607 173.27 C 179.607 183.294 179.733 193.312 179.568 203.33 C 179.377 215.328 179.795 227.321 179.613 239.316 C 179.579 241.423 179.621 243.526 178.838 245.538 C 178.536 246.307 178.62 247.02 178.815 247.849 C 180.079 253.276 180.238 258.701 178.311 264.04 C 178.139 264.512 177.925 264.963 177.61 265.361 C 176.777 266.432 176.119 266.204 175.713 265.033 C 175.345 263.976 175.456 262.851 175.456 261.749 C 175.448 253.331 175.451 244.911 175.451 236.496 C 175.451 191.603 175.451 146.71 175.442 101.82 C 175.442 100.244 175.782 98.586 174.666 97.195 C 173.554 96.007 172.082 96.321 170.72 96.272 C 166.133 96.104 161.539 96.539 156.957 96.001 C 154.793 95.247 152.658 94.579 150.293 95.338 C 149.166 95.702 147.912 95.445 146.78 94.991 C 144.439 94.052 144.309 92.723 146.363 90.947 C 147.546 90.61 148.756 90.749 149.95 90.749 C 200.08 90.741 250.216 90.741 300.347 90.743 C 305.423 90.743 305.761 91.04 305.697 96.237 C 305.577 105.654 305.867 115.067 305.524 124.487 C 305.41 127.739 305.479 131.083 305.881 134.367 L 305.872 134.38 Z" style="fill: rgb(248, 247, 212); stroke-width: 0px; transform-origin: 225.431px 255.23px;" transform="matrix(0, 1, -1, 0, -0.000030517578, -0.000034332275)"/>
  <path class="cls-10" d="M 355.503 365.947 C 355.503 356.125 355.503 346.299 355.503 336.475 C 355.052 334.269 355.046 332.065 355.503 329.856 C 355.503 329.253 355.503 328.658 355.51 328.054 C 355.869 327.841 356.149 327.92 356.348 328.29 C 356.559 331.394 356.186 334.506 356.546 337.611 C 356.546 339.059 356.546 340.516 356.546 341.965 C 356.309 346.537 356.286 351.108 356.559 355.678 C 356.672 359.91 356.894 364.142 356.477 368.371 C 355.435 368.904 354.314 368.638 353.23 368.638 C 267.799 368.652 182.37 368.652 96.938 368.638 C 95.851 368.638 94.74 368.848 93.674 368.422 L 93.661 368.422 C 92.939 367.343 93.137 366.111 93.137 364.925 C 93.128 257.841 93.128 150.762 93.132 43.676 C 93.132 42.773 93.091 41.87 93.253 40.974 C 94.104 39.314 95.449 39.006 97.107 39.573 C 98.269 42.468 98.482 45.599 99.324 48.581 C 99.441 50.086 99.402 51.592 99.402 53.093 C 99.402 119.421 99.402 185.754 99.402 252.083 C 99.402 253.684 99.474 255.288 99.279 256.885 C 98.692 258.531 98.806 260.244 98.806 261.945 C 98.806 289.503 98.77 317.06 98.844 344.62 C 98.853 348.693 97.935 352.746 98.714 356.847 C 99.044 358.592 97.866 360.102 97.351 361.711 C 96.055 365.765 96.588 366.555 100.729 366.698 C 105.139 366.851 109.492 365.763 113.902 366.106 C 127.885 367.199 141.887 366.456 155.878 366.684 C 159.98 366.749 164.093 366.894 168.153 366.175 C 173.671 365.199 179.086 366.728 184.569 366.722 C 237.083 366.681 289.593 366.722 342.109 366.644 C 345.532 366.638 348.835 367.331 352.217 367.472 C 353.61 367.533 354.81 367.331 355.503 365.947 Z" style="fill: rgb(249, 248, 233); stroke-width: 0px; transform-origin: 224.916px 204.008px;" transform="matrix(0, 1, -1, 0, 0.000015258789, -0.000020980835)"/>
  <path class="cls-26" d="M 240.764 183.736 C 239.527 183.514 238.416 184.075 237.253 184.303 C 236.609 183.756 236.683 183.148 237.11 182.519 C 237.863 181.759 238.818 182.148 239.667 182.148 C 325.324 182.098 410.982 182.083 496.638 181.969 C 499.517 181.969 500.31 182.63 500.262 185.551 C 500.034 199.179 500.056 212.811 499.987 226.441 C 499.565 222.426 499.065 218.452 499.328 214.356 C 499.694 208.77 499.497 203.144 499.519 197.538 C 499.534 194.232 499.538 190.924 499.519 187.623 C 499.497 183.995 499.228 183.736 495.535 183.736 C 457.035 183.736 418.537 183.736 380.036 183.736 C 366.636 183.736 353.237 183.747 339.834 183.756 C 338.52 184.587 337.072 184.812 335.537 184.804 C 312.761 184.708 289.982 184.918 267.204 184.691 C 259.119 184.613 251.03 184.982 242.946 184.593 C 242.1 184.622 241.38 184.311 240.764 183.736 Z" style="fill: rgb(250, 250, 243); stroke-width: 0px; transform-origin: 368.522px 204.205px;" transform="matrix(0, 1, -1, 0, -0.000015258789, 0.000045776367)"/>
  <path class="cls-8" d="M 225.932 -92.639 C 225.977 -92.047 226.024 -91.449 226.073 -90.855 C 226.041 -89.457 225.977 -88.056 225.977 -86.656 C 225.972 19.453 225.967 125.552 225.963 231.659 C 225.963 233.465 225.92 235.265 225.897 237.07 C 224.026 237.161 224.809 235.715 224.801 234.946 C 224.74 228.528 224.768 222.114 224.768 215.699 C 224.809 113.854 224.852 12.007 224.959 -89.836 C 224.959 -90.712 223.782 -92.375 225.932 -92.646 L 225.932 -92.639 Z" style="fill: rgb(249, 249, 221); stroke-width: 0px; transform-origin: 225.355px 72.2141px;" transform="matrix(0, 1, -1, 0, -0.000007629395, -0.000007629393)"/>
  <path class="cls-8" d="M 216.333 448.708 C 216.147 448.708 215.959 448.714 215.771 448.717 C 215.771 440.603 216.105 432.474 215.685 424.38 C 215.12 413.421 215.633 402.45 215.032 391.523 C 214.622 384.106 215.593 376.826 215.641 369.493 C 215.69 362.847 215.616 356.131 214.271 349.549 C 214.044 348.447 213.651 347.266 214.165 346.316 C 217.166 340.748 215.452 334.932 214.971 329.254 C 214.813 327.415 214.833 325.645 215.236 323.99 C 216.567 318.53 215.633 312.909 214.744 307.793 C 213.875 302.771 215.595 298.477 215.486 293.938 C 215.336 288.001 216.058 282.09 215.5 276.101 C 215.003 270.832 214.582 265.461 214.925 260.033 C 215.285 254.327 215.702 248.574 215.397 242.751 C 214.994 235.134 215.987 227.43 216.378 219.702 C 216.378 220.681 216.378 221.659 216.378 222.635 C 216.378 238.565 216.376 254.489 216.398 270.418 C 216.398 271.487 216.068 272.634 216.833 273.609 C 216.833 287.282 216.833 300.962 216.833 314.634 C 216.579 322.217 216.567 329.804 216.842 337.387 C 216.842 345.238 216.842 353.092 216.842 360.943 C 216.543 362.022 216.689 363.13 216.689 364.223 C 216.681 391.312 216.689 418.398 216.667 445.485 C 216.667 446.556 216.986 447.684 216.353 448.705 L 216.333 448.708 Z" style="fill: rgb(249, 249, 221); stroke-width: 0px; transform-origin: 215.377px 334.21px;" transform="matrix(0, 1, -1, 0, 0, 0)"/>
  <path class="cls-8" d="M -71.125 203.941 C -57.226 203.913 -43.324 203.866 -29.425 203.866 C 44.276 203.866 117.981 203.881 191.678 203.884 C 190.881 204.84 189.807 204.344 188.881 204.344 C 102.978 204.344 17.074 204.307 -68.833 204.263 C -69.601 204.263 -70.435 204.552 -71.13 203.935 L -71.125 203.941 Z" style="fill: rgb(249, 249, 221); stroke-width: 0px; transform-origin: 60.274px 204.169px;" transform="matrix(0, 1, -1, 0, 0.000007629393, -0.000007629396)"/>
  <path class="cls-20" d="M 139.699 374.55 C 139.714 346.459 139.721 318.367 139.755 290.273 C 139.755 289.11 139.387 287.864 140.191 286.785 C 140.223 293.389 140.283 300 140.283 306.604 C 140.297 331.344 140.292 356.08 140.283 380.818 C 140.283 381.915 140.208 383.014 140.171 384.11 C 139.18 380.964 140.033 377.728 139.695 374.547 L 139.699 374.55 Z" style="fill: rgb(248, 247, 212); stroke-width: 0px; transform-origin: 139.981px 335.447px;" transform="matrix(0, 1, -1, 0, 0.000015258791, 0.000030517578)"/>
  <path class="cls-20" d="M 223.868 346.744 C 222.908 344.648 223.409 342.43 223.462 340.294 C 223.608 334.861 222.833 329.402 223.859 323.991 C 223.859 331.574 223.866 339.161 223.868 346.744 Z" style="fill: rgb(248, 247, 212); stroke-width: 0px; transform-origin: 223.576px 335.367px;" transform="matrix(0, 1, -1, 0, -0.0000152588, 0.000022888182)"/>
  <path class="cls-20" d="M 80.382 342.236 C 79.623 337.666 79.652 333.095 80.372 328.523 C 80.373 333.095 80.38 337.666 80.382 342.236 Z" style="fill: rgb(248, 247, 212); stroke-width: 0px; transform-origin: 80.1022px 335.38px;" transform="matrix(0, 1, -1, 0, -0.000007629394, -0.000022888183)"/>
  <path class="cls-32" d="M 176.339 169.014 C 177.231 168.338 178.262 168.618 179.234 168.618 C 210.084 168.597 240.931 168.588 271.786 168.585 C 273.216 169.94 272.888 171.734 272.891 173.392 C 272.928 187.217 272.957 201.045 272.891 214.874 C 272.866 220.99 273.863 227.057 273.522 233.181 C 273.165 239.579 272.508 245.985 272.957 252.385 C 273.513 260.273 272.859 268.163 273.291 276.068 C 273.587 281.515 272.883 287.053 272.897 292.561 C 272.934 307.791 272.912 323.021 272.904 338.251 C 272.904 339.552 272.903 340.852 272.823 342.153 C 272.69 344.468 271.456 345.653 269.187 345.656 C 248.886 345.709 228.588 345.935 208.29 345.54 C 202.011 345.42 195.734 344.75 189.445 345.527 C 186.262 345.92 183.048 345.809 179.851 345.664 C 176.596 345.518 175.599 344.471 175.349 341.276 C 175.26 340.176 175.295 339.072 175.295 337.969 C 175.295 314.821 175.258 291.678 175.32 268.531 C 175.335 263.544 176.198 258.596 176.127 253.571 C 175.957 240.991 176.078 228.401 176.072 215.815 C 176.072 201.002 176.072 186.191 176.08 171.378 C 176.08 170.586 175.919 169.771 176.331 169.02 L 176.339 169.014 Z" style="fill: rgb(77, 135, 129); stroke-width: 0px; transform-origin: 224.439px 257.179px;" transform="matrix(0, 1, -1, 0, -0.000015258789, -0.000030517578)"/>
  <path class="cls-29" d="M 382.288 119.463 C 387.526 119.515 392.766 119.561 398.005 119.621 C 399.182 119.636 400.39 119.451 401.501 120.03 C 402.054 120.96 401.791 121.984 401.791 122.966 C 401.811 144.061 401.806 165.153 401.804 186.246 C 401.804 189.874 401.561 190.165 397.93 190.257 C 390.75 190.439 383.572 190.142 376.391 190.182 C 357.201 190.373 338.017 190.206 318.826 190.281 C 313.932 190.301 309.03 190.067 304.143 190.508 C 303.24 190.592 302.348 190.513 301.505 190.114 C 299.865 189.771 299.266 188.594 299.087 187.079 C 298.967 186.084 298.969 185.084 298.967 184.085 C 298.967 164.371 298.946 144.657 298.983 124.943 C 298.983 122.888 298.626 120.672 300.509 119.074 C 301.971 118.231 303.596 118.352 305.186 118.352 C 326.068 118.338 346.953 118.122 367.822 118.511 C 372.598 118.597 377.531 118.312 382.294 119.463 L 382.288 119.463 Z" style="fill: rgb(112, 148, 120); stroke-width: 0px; transform-origin: 350.405px 154.409px;" transform="matrix(0, 1, -1, 0, -0.000030517578, 0.000015258789)"/>
  <path class="cls-27" d="M 360.191 291.675 C 359.589 291.675 358.983 291.675 358.381 291.675 C 354.582 291.851 350.781 292.677 346.982 291.675 C 333.119 291.616 319.255 291.569 305.392 291.48 C 304.232 291.471 302.993 291.842 301.919 291.046 C 301.496 290.299 301.663 289.479 301.663 288.693 C 301.654 267.492 301.654 246.293 301.668 225.098 C 301.668 224.232 301.372 223.287 302.029 222.498 L 301.965 222.553 C 302.864 221.876 303.901 222.203 304.87 222.203 C 334.675 222.185 364.486 222.185 394.292 222.188 C 396.566 222.188 397.702 223.316 397.705 225.575 C 397.705 231.989 397.886 238.407 397.667 244.814 C 397.219 258.13 398.534 271.401 398.496 284.699 C 398.496 285.701 398.511 286.705 398.482 287.707 C 398.358 291.825 397.974 291.941 394.004 292.041 C 388.107 292.191 382.202 292.511 376.328 292.176 C 370.946 291.875 365.555 292.324 360.197 291.675 L 360.191 291.675 Z" style="fill: rgb(112, 151, 121); stroke-width: 0px; transform-origin: 350.051px 257.224px;" transform="matrix(0, 1, -1, 0, 0, 0.000015258789)"/>
  <path class="cls-18" d="M 301.739 103.464 C 313.139 103.433 324.541 103.329 335.94 103.418 C 338.373 103.436 339.199 102.855 339.184 100.287 C 339.078 79.143 339.085 57.993 339.138 36.849 C 339.138 34.863 338.714 34.023 336.518 34.029 C 306.111 34.104 275.7 34.092 245.291 34.112 C 244.699 34.112 244.106 34.259 243.513 34.342 C 244.337 33.248 245.534 33.672 246.575 33.672 C 276.46 33.649 306.345 33.686 336.229 33.597 C 338.813 33.588 339.665 34.211 339.639 36.923 C 339.503 50.637 339.578 64.357 339.582 78.079 C 339.582 78.778 339.563 79.48 339.596 80.178 C 339.616 80.643 339.517 81.279 340.249 81.249 C 340.78 81.233 341.205 80.841 341.265 80.315 C 341.359 79.523 341.357 78.717 341.357 77.914 C 341.359 64.498 341.357 51.078 341.383 37.66 C 341.383 36.5 340.991 35.233 341.952 34.218 C 342.094 34.363 342.232 34.501 342.376 34.644 C 343.162 36.021 343.029 37.543 343.029 39.035 C 343.045 58.715 343.045 78.398 343.029 98.074 C 343.029 100.469 342.75 102.857 342.847 105.257 C 342.833 164.799 342.718 224.337 342.908 283.876 C 342.983 306.327 342.894 328.778 343.075 351.223 C 343.077 352.026 343.116 352.825 342.963 353.613 C 341.678 355.606 341.107 354.244 340.707 353.038 C 340.234 351.617 340.566 350.106 340.471 348.949 C 340.356 350.143 340.712 351.708 340.197 353.165 C 339.817 354.244 339.222 355.277 338.022 353.761 C 337.702 349.654 337.921 345.55 337.909 341.445 C 337.877 324.418 337.906 307.391 337.892 290.369 C 337.892 285.6 337.864 285.577 333.011 285.57 C 305.121 285.562 277.229 285.565 249.339 285.57 C 248.538 285.57 247.74 285.617 246.94 285.617 C 245.286 285.617 244.632 286.484 244.606 288.055 C 244.587 289.157 244.563 290.26 244.563 291.356 C 244.563 310.286 244.572 329.211 244.55 348.144 C 244.55 349.922 244.829 351.769 243.823 353.418 C 242.442 354.206 242.376 352.933 242.155 352.224 C 241.76 350.978 241.881 349.654 241.886 348.355 C 241.928 335.192 241.766 322.023 242.022 308.866 C 241.942 312.652 241.416 316.42 241.407 320.219 C 241.407 321.287 241.706 322.964 239.654 322.849 C 238.626 321.43 238.841 319.781 238.84 318.204 C 238.811 308.684 238.848 299.161 238.816 289.644 C 238.803 285.767 238.635 285.585 234.727 285.585 C 204.318 285.565 173.911 285.562 143.502 285.585 C 139.666 285.585 139.505 285.767 139.499 289.73 C 139.477 309.073 139.499 328.411 139.482 347.754 C 139.482 349.45 139.634 351.167 139.114 352.825 C 137.49 354.428 135.841 354.437 134.158 352.886 C 133.387 348.707 133.63 344.494 133.945 340.316 C 134.163 337.417 134.321 334.525 134.348 331.621 C 134.621 297.874 134.535 264.121 134.538 230.37 C 134.538 228.971 134.627 227.56 134.408 226.168 C 134.302 199.923 134.299 173.681 134.39 147.436 C 134.636 146.147 134.543 144.841 134.543 143.539 C 134.549 120.306 134.667 97.073 134.497 73.839 C 134.413 62.425 134.446 51.014 134.348 39.6 C 134.309 35.562 134.127 35.344 130.097 35.344 C 124.801 35.344 119.504 35.2 114.219 35.444 C 112.677 35.514 112.921 37.235 112.01 37.882 C 111.301 35.323 109.522 32.929 110.818 30.062 C 111.408 30.062 111.995 30.062 112.585 30.062 C 114.13 32.647 116.539 32.86 119.25 32.745 C 123.126 32.578 127.012 32.705 130.894 32.705 C 132.491 32.705 134.025 32.572 135.53 31.847 C 137.43 30.929 138.829 31.43 139.156 33.746 C 138.198 34.613 138.463 35.77 138.463 36.843 C 138.42 58.063 138.391 79.287 138.356 100.506 C 138.356 101.893 138.061 103.447 140.222 103.447 C 140.587 104.72 139.606 105.758 139.626 106.975 C 139.493 108.481 139.49 109.985 139.49 111.489 C 139.49 165.817 139.49 220.147 139.49 274.477 C 139.49 278.434 141.447 280.414 145.358 280.417 C 147.859 280.417 150.36 280.448 152.861 280.41 C 179.672 280 206.465 281.383 233.276 281.027 C 238.811 280.951 238.816 281.01 238.816 275.4 C 238.816 221.272 238.816 167.139 238.816 113.01 C 238.816 106.92 238.811 106.96 232.77 106.9 C 228.976 106.86 225.169 107.203 221.39 106.627 C 219.672 105.997 218.107 104.947 216.185 104.808 C 215.462 104.757 214.587 104.526 214.67 103.418 C 222.05 103.398 229.431 103.26 236.804 103.424 C 239.363 103.479 239.959 102.676 239.95 100.232 C 239.858 78.239 239.891 56.252 239.881 34.259 C 240.955 35.358 240.465 36.737 240.469 37.982 C 240.497 92.102 240.497 146.222 240.503 200.344 C 240.503 201.447 240.503 202.546 240.503 203.648 C 241.622 201.561 243.104 199.613 242.877 197.097 C 242.535 193.275 243.591 189.399 241.919 185.574 C 241.377 184.329 242.808 182.351 242.828 180.702 C 242.929 171.279 242.874 161.858 242.877 152.438 C 242.877 137.557 242.888 122.669 242.92 107.787 C 242.92 107.341 243.271 106.898 243.462 106.448 C 243.482 153.748 243.504 201.043 243.513 248.345 C 243.513 258.568 243.515 268.791 243.37 279.007 C 243.338 281.283 244.04 281.908 246.256 281.902 C 276.255 281.876 306.261 281.902 336.259 282.005 C 338.499 282.014 339.138 281.389 339.133 279.127 C 339.078 260.591 339.175 242.052 339.179 223.508 C 339.179 185.339 339.161 147.166 339.133 108.995 C 339.133 108 338.989 107.008 338.911 106.011 C 337.484 103.433 335.02 103.989 332.855 104.211 C 326.508 104.854 320.184 104.841 313.832 104.207 C 310.867 103.911 307.858 104.103 304.87 104.02 C 303.814 103.993 302.652 104.382 301.748 103.451 L 301.739 103.464 Z" style="fill: rgb(240, 243, 208); stroke-width: 0px; transform-origin: 226.719px 192.344px;" transform="matrix(0, 1, -1, 0, 0, -0.000022888184)"/>
  <path class="cls-8" d="M 215.83 256.105 C 217.366 256.045 217.133 254.888 217.153 253.924 C 217.182 252.327 217.14 250.724 217.177 249.126 C 217.192 248.485 216.949 247.48 217.965 247.515 C 218.759 247.54 218.904 248.43 218.912 249.158 C 218.932 250.756 218.912 252.359 218.939 253.956 C 218.949 254.934 218.751 256.082 220.302 256.082 C 226.858 254.511 233.412 254.495 239.965 256.096 C 240.249 259.64 242.753 260.353 246.557 257.973 C 246.463 259.19 245.763 259.745 244.59 259.764 C 243.786 259.777 242.99 259.777 242.189 259.777 C 185.681 259.777 129.176 259.801 72.668 259.717 C 68.359 259.715 64.089 258.71 59.709 259.139 C 45.072 260.575 30.379 259.358 15.719 259.789 C 11.123 259.921 6.599 258.88 1.987 259.139 C -1.791 259.352 -5.528 260.011 -9.345 259.821 C -13.411 259.622 -14.522 258.037 -12.963 254.1 C -12.272 252.353 -11.002 250.859 -11.008 248.809 C -11.026 216.744 -11.017 184.673 -10.987 152.607 C -10.987 151.444 -11.365 150.19 -10.516 149.124 C -9.207 150.181 -9.558 151.68 -9.551 153.033 C -9.517 163.445 -9.489 173.851 -9.544 184.267 C -9.659 205.989 -9.238 227.708 -9.328 249.425 C -9.351 254.476 -9.307 254.48 -4.406 254.495 C -0.21 254.508 3.985 254.476 8.182 254.508 C 9.678 254.523 11.207 254.45 12.429 255.579 C 13.606 254.66 14.778 253.717 15.946 255.588 C 17.08 254.555 18.488 254.511 19.894 254.511 C 34.287 254.495 48.698 254.025 63.062 254.638 C 79.051 255.317 95.026 254.844 111.004 255.081 C 116.398 255.162 116.406 255.073 116.409 249.553 C 116.421 242.844 116.386 236.139 116.43 229.427 C 116.438 227.856 116.185 226.184 117.462 224.882 C 118.368 224.101 118.133 223.021 118.049 222.075 C 117.69 217.869 118.795 213.749 118.703 209.555 C 118.679 208.467 118.962 207.416 120.458 206.485 C 120.458 207.82 120.458 208.85 120.458 209.88 C 120.458 223.964 120.449 238.055 120.478 252.14 C 120.478 253.294 120.075 254.555 121.005 255.588 C 122.229 254.48 123.751 254.5 125.253 254.5 C 142.043 254.48 158.847 254.063 175.614 254.638 C 187.607 255.049 199.584 254.854 211.568 255.103 C 213.044 255.138 214.602 254.934 215.825 256.1 L 215.83 256.105 Z" style="fill: rgb(249, 249, 221); stroke-width: 0px; transform-origin: 116.459px 204.494px;" transform="matrix(0, 1, -1, 0, 0.000007629395, 0.000007629395)"/>
  <path class="cls-33" d="M 198.033 443.789 C 191.481 443.789 184.924 443.78 178.371 443.778 C 177.071 442.67 177.594 441.165 177.594 439.826 C 177.605 389.621 177.663 339.415 177.682 289.21 C 177.689 258.848 177.643 228.487 177.629 198.126 C 177.629 197.026 177.718 195.93 177.763 194.83 C 178.189 194.793 178.5 194.96 178.698 195.34 C 179.631 197.651 179.214 200.08 179.229 202.455 C 179.252 206.949 179.396 211.445 179.11 215.94 C 179.405 221.955 179.289 227.973 179.208 233.991 C 179.321 243.684 179.275 253.373 179.289 263.063 C 179.292 267.357 179.277 271.651 179.194 275.946 C 179.289 282.792 179.398 289.641 179.139 296.491 C 179.421 307.093 179.269 317.692 179.238 328.295 C 179.252 334.704 179.289 341.11 179.275 347.523 C 179.275 348.823 179.238 350.124 179.125 351.415 C 179.292 357.722 179.168 364.033 179.183 370.341 C 179.186 372.482 179.548 374.422 180.613 376.368 C 182.284 379.415 182.155 382.992 182.562 386.322 C 183.008 389.954 184.994 392.136 187.718 393.885 C 189.826 395.244 190.766 397.003 191.354 399.412 C 192.377 403.619 193.458 407.731 192.585 412.118 C 192.322 413.441 193.054 414.661 193.822 415.729 C 195.471 418.023 195.973 420.584 196.042 423.373 C 196.171 428.63 197.886 433.74 197.054 439.521 C 198.502 438.44 198.232 437.486 198.232 436.68 C 198.29 417.648 198.206 398.614 198.306 379.581 C 198.194 378.851 198.194 378.12 198.321 377.393 C 198.352 372.468 198.48 367.544 198.237 362.62 C 198.122 357.865 198.192 353.111 198.201 348.353 C 198.201 347.073 198.177 345.761 199.022 344.652 C 199.581 344.255 200.118 344.241 200.627 344.736 C 200.854 351.744 200.695 358.757 200.721 365.766 C 200.753 376.359 200.997 386.944 201.173 397.531 C 201.271 403.196 200.433 408.926 200.799 414.609 C 201.233 421.398 200.555 428.182 201.02 434.957 C 201.089 435.957 201.035 436.968 200.428 437.846 C 200.381 438.831 200.206 439.82 200.315 440.784 C 200.526 442.592 199.818 443.564 198.033 443.785 L 198.033 443.789 Z" style="stroke-width: 0px; fill: rgb(69, 120, 131); transform-origin: 189.336px 319.307px;" transform="matrix(0, 1, -1, 0, 0.000015258789, 0.000015258789)"/>
  <path class="cls-10" d="M 359.642 134.045 C 358.513 132.843 357.544 131.079 355.806 133.504 C 355.265 134.261 354.125 133.913 353.244 133.916 C 348.281 133.936 343.31 133.807 338.35 133.976 C 335.536 134.074 332.967 134.324 333.065 130.37 C 365.496 130.373 397.933 130.379 430.371 130.381 C 429.407 131.892 430.476 132.592 431.594 132.98 C 432.88 133.43 434.261 133.574 435.631 133.107 C 437.62 132.431 439.47 132.695 441.143 133.999 C 429.059 134.045 416.971 134.125 404.886 134.125 C 389.8 134.129 374.717 134.074 359.63 134.045 L 359.642 134.045 Z" style="fill: rgb(249, 248, 233); stroke-width: 0px; transform-origin: 387.103px 132.248px;" transform="matrix(0, 1, -1, 0, 0, 0.000015258791)"/>
  <path class="cls-18" d="M 238.66 477.176 C 238.617 472.182 238.54 467.186 238.548 462.193 C 238.589 436.902 238.649 411.608 238.702 386.317 C 238.702 385.519 238.625 384.725 238.589 383.928 C 237.149 381.671 238.011 379.162 237.817 376.767 C 237.714 375.501 237.795 374.223 237.789 372.948 C 237.797 312.314 237.789 251.678 237.789 191.043 C 237.805 183.232 237.804 175.419 237.789 167.609 C 237.783 164.063 237.76 164.121 234.33 164.186 C 229.331 164.285 224.332 164.241 219.336 164.196 C 218.141 164.186 216.913 164.186 215.954 163.268 C 215.954 163.268 215.833 163.13 215.833 163.13 C 216.541 162.348 217.491 162.56 218.368 162.56 C 224.769 162.547 231.163 162.552 237.566 162.56 C 239.159 162.56 240.781 162.046 239.543 164.986 C 238.693 167.012 239.276 169.657 239.271 172.029 C 239.256 182.144 239.271 192.263 239.271 202.38 C 239.271 273.263 239.172 344.143 239.415 415.021 C 239.438 422.201 238.981 429.472 240.283 436.689 C 240.769 439.386 239.567 442.364 239.285 445.23 C 238.793 450.232 240.373 455.248 239.728 460.164 C 239.09 465.068 240.442 469.825 239.886 474.658 C 239.766 475.693 239.752 476.667 238.654 477.17 L 238.66 477.176 Z" style="fill: rgb(240, 243, 208); stroke-width: 0px; transform-origin: 228.115px 319.851px;" transform="matrix(0, 1, -1, 0, 0, 0.000007629394)"/>
  <path class="cls-18" d="M 350.876 174.554 C 350.84 197.402 350.801 220.254 350.765 243.102 C 349.838 242.194 350.204 241.027 350.204 239.97 C 350.186 219.188 350.186 198.405 350.215 177.616 C 350.215 176.575 349.8 175.383 350.876 174.549 L 350.876 174.554 Z" style="fill: rgb(240, 243, 208); stroke-width: 0px; transform-origin: 350.504px 208.826px;" transform="matrix(0, 1, -1, 0, 0.000015258784, -0.000015258784)"/>
  <path class="cls-18" d="M 309.387 259.341 C 313.186 259.341 316.987 259.341 320.786 259.341 C 316.987 259.656 313.186 261.483 309.387 259.341 Z" style="fill: rgb(240, 243, 208); stroke-width: 0px; transform-origin: 315.087px 259.854px;" transform="matrix(0, 1, -1, 0, 0, 0.000015258792)"/>
  <path class="cls-8" d="M 96.114 330.932 C 96.114 333.136 96.114 335.34 96.114 337.551 C 95.158 335.347 95.149 333.136 96.114 330.932 Z" style="fill: rgb(249, 249, 221); stroke-width: 0px; transform-origin: 95.7538px 334.242px;" transform="matrix(0, 1, -1, 0, -0.00003051758, -0.00003051758)"/>
  <path class="cls-21" d="M 236.223 248.849 C 229.733 248.84 223.234 248.665 216.748 248.892 C 213.868 248.992 213.263 247.989 213.271 245.335 C 213.387 220.522 213.408 195.708 213.418 170.892 C 213.418 161.391 213.319 151.892 213.271 142.391 C 213.348 129.38 213.492 116.369 213.501 103.353 C 213.525 47.779 213.51 -7.788 213.501 -63.363 C 213.501 -64.561 213.427 -65.76 213.387 -66.957 C 213.888 -68.063 213.038 -69.4 213.979 -70.431 C 215.34 -69.056 215.035 -67.278 215.026 -65.628 C 214.983 -55.08 215.231 -44.53 214.882 -33.983 C 215.064 -32.789 215.041 -31.589 215.041 -30.383 C 215.035 47.757 215.035 125.891 215.049 204.031 C 215.049 206.212 214.715 208.468 215.823 210.514 C 216.23 211.271 216.776 212.471 217.758 211.298 C 221.313 207.064 226.178 206.719 231.123 206.522 C 234.507 206.393 235.045 205.961 235.094 202.425 C 235.213 193.809 235.132 185.195 235.137 176.578 C 235.147 159.751 235.108 142.918 235.183 126.091 C 235.192 124.451 234.469 122.389 236.674 121.37 C 236.68 137.908 236.726 154.441 236.686 170.976 C 236.619 195.328 236.499 219.681 236.393 244.037 C 236.384 245.64 236.276 247.237 236.216 248.84 L 236.223 248.849 Z" style="stroke-width: 0px; fill: rgb(68, 118, 126); transform-origin: 224.987px 89.2339px;" transform="matrix(0, 1, -1, 0, 0.000007629395, -0.000007629394)"/>
  <path class="cls-12" d="M 348.755 143.776 C 350.549 145.095 353.409 143.807 354.753 146.231 C 353.643 147.351 352.192 147.252 350.81 147.258 C 326.229 147.29 301.65 147.29 277.064 147.258 C 275.682 147.258 274.232 147.351 273.121 146.231 C 273.023 145.177 273.941 144.628 274.307 143.801 C 275.762 144.878 277.15 143.661 278.586 143.664 C 301.978 143.73 325.364 143.748 348.755 143.776 Z" style="fill: rgb(248, 249, 224); stroke-width: 0px; transform-origin: 313.933px 145.473px;" transform="matrix(0, 1, -1, 0, 0.000015258788, -0.000030517578)"/>
  <path class="cls-30" d="M 175.078 66.649 C 177.374 66.71 179.673 66.819 181.97 66.819 C 205.886 66.816 229.8 66.792 253.713 66.77 C 254.71 66.77 255.709 66.69 256.705 66.651 C 262.1 66.695 267.502 66.885 272.893 66.718 C 275.423 66.641 276.044 67.397 276.035 69.881 C 275.933 121.781 275.914 173.684 275.886 225.585 C 275.886 230.196 275.727 234.812 275.954 239.414 C 276.084 242.048 275.368 242.775 272.671 242.758 C 243.472 242.562 214.269 242.508 185.07 242.418 C 182.569 242.409 180.053 242.237 177.576 242.472 C 174.968 242.724 174.165 241.969 174.208 239.226 C 174.402 226.906 174.373 214.581 174.373 202.257 C 174.383 158.17 174.369 114.082 174.393 70.002 C 174.393 68.877 173.84 67.561 175.074 66.662 L 175.078 66.649 Z" style="fill: rgb(77, 133, 129); stroke-width: 0px; transform-origin: 225.121px 154.704px;" transform="matrix(0, 1, -1, 0, 0.000015258789, 0.000015258789)"/>
  <path class="cls-25" d="M 150.58 158.366 C 150.531 167.685 150.427 177.004 150.473 186.328 C 150.484 188.556 150.021 189.52 147.5 189.506 C 115.086 189.338 82.672 189.277 50.255 189.187 C 49.854 189.187 49.457 189.111 49.06 189.071 C 49.025 166.833 49.017 144.596 48.928 122.364 C 48.919 120.329 49.679 119.842 51.564 119.842 C 83.659 119.903 115.753 119.926 147.843 119.886 C 149.961 119.886 150.539 120.527 150.531 122.617 C 150.465 134.534 150.545 146.449 150.571 158.366 L 150.58 158.366 Z" style="fill: rgb(114, 150, 120); stroke-width: 0px; transform-origin: 99.754px 154.674px;" transform="matrix(0, 1, -1, 0, 0, 0.000019073486)"/>
  <path class="cls-5" d="M 146.67 291.683 C 116.357 291.571 86.052 291.461 55.743 291.34 C 54.444 291.336 53.146 291.229 51.851 291.169 C 51.851 269.232 51.877 247.297 51.791 225.359 C 51.779 222.961 52.309 222.066 54.898 222.075 C 84.791 222.15 114.686 222.14 144.584 222.043 C 147.067 222.035 147.554 222.927 147.545 225.165 C 147.439 246.302 147.43 267.437 147.378 288.569 C 147.378 289.65 147.609 290.803 146.67 291.678 L 146.67 291.683 Z" style="fill: rgb(114, 151, 121); stroke-width: 0px; transform-origin: 99.668px 256.863px;" transform="matrix(0, 1, -1, 0, 0.000007629395, 0.000007629395)"/>
  <path class="cls-3" d="M 238.525 124.015 C 237.713 125.088 238.08 126.34 238.08 127.506 C 238.044 153.354 238.032 179.207 238.019 205.052 C 238.019 209.884 237.627 209.987 232.85 210.102 C 229.164 210.188 225.399 210.612 222.078 212.621 C 221.142 213.188 220.785 214.057 220.437 215.026 C 220.186 215.725 220.049 216.791 219.061 216.754 C 218.238 216.722 217.662 215.909 217.338 215.21 C 216.505 213.426 215.787 211.682 215.792 209.555 C 215.855 143.228 215.842 76.903 215.842 10.575 C 215.842 -3.353 215.855 -17.276 215.867 -31.207 C 216.813 -32.858 217.177 -34.774 218.141 -36.415 C 219.038 -37.941 219.942 -37.806 220.716 -36.283 C 220.849 -36.019 220.91 -35.716 221.007 -35.429 C 221.617 -33.581 221.661 -31.529 223.796 -30.395 C 227.07 -28.656 230.372 -27.583 234.138 -28.243 C 235.978 -28.561 236.395 -30.395 237.779 -31.278 C 238.752 -30.221 238.315 -28.968 238.32 -27.851 C 238.35 -4.605 238.34 18.639 238.352 41.884 C 238.352 42.97 238.117 44.092 238.588 45.147 C 238.617 67.74 238.649 90.334 238.663 112.926 C 238.663 116.622 238.577 120.316 238.531 124.015 L 238.525 124.015 Z" style="fill: rgb(68, 118, 126); stroke-width: 0px; transform-origin: 227.227px 89.6302px;" transform="matrix(0, 1, -1, 0, 0, 0.000015258789)"/>
  <path class="cls-14" d="M 339.649 146.289 C 338.751 145.247 339.139 143.987 339.139 142.824 C 339.103 119.789 339.095 96.756 339.088 73.722 C 339.088 72.726 339.088 71.731 338.94 70.616 C 338.8 73.716 336.555 73.713 334.399 74.151 C 330.14 75.029 326.712 72.681 323.126 71.261 C 321.575 70.651 321.708 68.121 321.134 66.444 C 320.893 65.746 321.431 64.838 320.347 64.129 C 319.538 66.3 319.235 68.767 316.933 69.937 C 316.918 57.741 316.905 45.55 316.895 33.354 C 323.878 32.817 330.865 33.221 337.849 33.057 C 339.407 33.023 339.649 33.86 339.634 35.13 C 339.597 38.134 339.62 41.135 339.625 44.143 C 339.674 77.294 339.726 110.441 339.771 143.589 C 339.771 144.487 339.7 145.385 339.657 146.284 L 339.649 146.289 Z" style="stroke-width: 0px; fill: rgb(68, 118, 126); transform-origin: 328.333px 89.6725px;" transform="matrix(0, 1, -1, 0, -0.000061035156, 0.000030517578)"/>
  <path class="cls-33" d="M 338.081 283.732 C 345.158 283.125 352.248 283.618 359.332 283.511 C 360.845 283.488 360.805 284.483 360.799 285.522 C 360.767 294.128 360.74 302.732 360.712 311.343 C 360.218 311.677 359.766 311.631 359.36 311.191 C 358.405 308.483 358.706 305.656 358.669 302.867 C 358.6 297.702 358.73 292.539 358.592 287.479 C 358.008 287.347 357.772 287.439 357.789 287.652 C 358.266 294.108 355.402 300.191 355.688 306.624 C 355.743 307.832 355.645 309.124 354.856 310.072 C 352.963 312.347 352.736 314.845 353.19 317.675 C 353.812 321.534 352.199 325.161 351.587 328.893 C 351.374 330.199 350.364 331.224 349.161 331.81 C 343.811 334.43 341.926 339.081 341.977 344.607 C 342.009 348.431 340.469 351.539 338.584 354.616 C 338.432 354.616 338.28 354.616 338.126 354.616 C 338.09 346.708 338.021 338.801 338.021 330.896 C 338.021 315.174 338.058 299.454 338.081 283.73 L 338.081 283.732 Z" style="stroke-width: 0px; fill: rgb(69, 120, 131); transform-origin: 349.411px 319.019px;" transform="matrix(0, 1, -1, 0, 0, -0.000028610229)"/>
  <path class="cls-8" d="M 128.695 214.711 C 127.682 209.941 126.126 205.178 128.695 200.297 L 128.695 214.711 Z" style="fill: rgb(249, 249, 221); stroke-width: 0px; transform-origin: 127.994px 207.504px;" transform="matrix(0, 1, -1, 0, 0, 0.000022888186)"/>
  <path class="cls-8" d="M 94.173 304.893 C 94.928 305.255 95.705 305.584 95.215 306.588 C 95.095 306.832 94.353 307.089 94.237 306.976 C 93.599 306.369 93.723 305.643 94.173 304.887 L 94.173 304.893 Z" style="fill: rgb(249, 249, 221); stroke-width: 0px; transform-origin: 94.5824px 305.945px;" transform="matrix(0, 1, -1, 0, 0, 0)"/>
  <path class="cls-24" d="M 242.043 339.196 C 242.051 325.209 242.064 311.225 242.072 297.235 C 244.766 298.418 247.459 298.801 250.378 297.856 C 252.084 297.307 253.35 296.634 254.292 294.985 C 255.973 292.026 259.363 291.883 261.368 294.64 C 262.165 295.729 263.443 296.57 263.573 298.113 C 263.625 312.249 263.61 326.374 263.582 340.493 C 261.976 345.044 259.282 346.253 254.826 344.819 C 251.437 343.731 248.579 342.301 247.523 338.554 C 247.091 337.02 246.282 336.831 244.954 337.903 C 244.17 338.539 243.257 339.322 242.049 339.193 L 242.043 339.196 Z" style="stroke-width: 0px; fill: rgb(69, 120, 131); transform-origin: 252.825px 319.027px;" transform="matrix(0, 1, -1, 0, 0.00001525879, 0.000015258789)"/>
  <path class="cls-9" d="M 123.122 302.196 C 123.122 321.835 123.134 341.48 123.112 361.118 C 123.112 362.213 123.563 363.931 121.747 363.862 C 120.092 363.794 119.85 362.684 119.972 360.883 C 120.207 357.455 120.667 353.967 119.24 350.517 C 118.564 348.872 118.883 346.761 118.973 344.87 C 119.079 342.628 118.419 340.674 116.967 339.076 C 115.297 337.241 115.07 335.234 115.595 332.943 C 116.162 330.474 116.336 327.996 115.053 325.642 C 114.955 325.467 114.835 325.268 114.84 325.086 C 115.025 319.204 110.561 316.795 106.633 313.967 C 106.267 313.701 105.803 313.16 105.844 312.798 C 106.235 309.375 104.586 306.228 104.575 302.892 C 104.571 301.091 104.316 299.551 102.848 298.342 C 101.972 297.626 102.14 296.531 102.14 295.531 C 102.142 288.519 102.157 281.5 102.166 274.491 C 103.339 272.743 104.491 273.71 105.303 274.72 C 106.65 276.392 108.272 277.206 110.379 277.509 C 112.652 277.837 114.071 279.377 114.742 281.568 C 115.959 285.558 116.777 289.66 119.129 293.28 C 120.406 295.249 119.911 297.769 119.559 300.05 C 119.258 302.003 119.476 303.807 120.478 305.658 C 121.992 304.933 121.096 302.397 123.117 302.196 L 123.122 302.196 Z" style="fill: rgb(69, 120, 131); stroke-width: 0px; transform-origin: 112.644px 318.695px;" transform="matrix(0, 1, -1, 0, 0, -0.000015258789)"/>
  <path class="cls-6" d="M 326.818 342.796 C 326.812 340.95 327.146 339.203 328.469 337.817 C 329.342 336.906 329.347 335.775 329.184 334.71 C 328.68 331.339 329.564 328.03 330.68 325.089 C 331.425 323.132 333.088 320.783 335.502 319.952 C 338.133 319.051 339.504 317.457 339.411 314.662 C 339.32 311.955 341.231 309.569 340.626 306.764 C 339.892 303.371 339.451 300.014 342.7 297.484 C 342.891 297.337 343 296.914 342.96 296.655 C 341.898 290.28 345.539 284.381 344.823 278.049 C 344.776 277.655 344.823 277.246 344.814 276.849 C 344.776 275.418 344.733 273.45 346.368 273.445 C 348.108 273.436 347.763 275.468 347.809 276.806 C 348.059 283.796 347.326 290.801 348.198 297.78 C 348.267 298.335 347.953 298.943 347.818 299.527 C 348.471 300.272 348.411 301.191 348.405 302.081 C 348.379 309.963 348.5 317.842 348.347 325.71 C 343.455 329.023 343.334 333.955 343.82 339.107 C 344.063 341.654 343.697 343.959 342.062 346.163 C 340.306 348.533 340.435 351.667 339.67 354.438 C 338.865 357.37 337.633 359.399 334.28 359.365 C 332.124 359.347 331.385 361.178 330.179 362.481 C 329.358 363.37 328.864 365.636 326.844 363.895 C 326.832 356.864 326.82 349.833 326.809 342.802 L 326.818 342.796 Z" style="stroke-width: 0px; fill: rgb(69, 120, 131); transform-origin: 337.618px 318.99px;" transform="matrix(0, 1, -1, 0, 0, -0.000015258789)"/>
  <path class="cls-24" d="M 183.125 332.632 C 183.128 322.017 183.136 311.401 183.143 300.783 C 183.718 300.163 184.692 299.529 185.211 300.042 C 187.385 302.163 188.001 300.375 189.423 298.985 C 192.424 296.055 202.016 297.42 204.603 300.822 C 204.75 311.521 204.652 322.22 204.652 332.904 C 204.166 335.417 202.485 337.34 201.199 339.422 C 200.183 341.064 197.794 341.072 196.609 339.369 C 194.971 337.013 192.894 335.944 190.151 335.713 C 188.723 335.593 187.923 334.521 187.385 333.261 C 185.194 335.645 184.366 335.517 183.115 332.628 L 183.125 332.632 Z" style="stroke-width: 0px; fill: rgb(69, 120, 131); transform-origin: 193.899px 319.016px;" transform="matrix(0, 1, -1, 0, 0.000015258789, -0.000007629395)"/>
  <path class="cls-1" d="M 290.845 327.963 C 293.204 328.426 293.474 326.146 294.231 324.982 C 295.35 323.253 296.542 322.3 298.55 322.522 C 300.899 322.781 302.229 321.6 302.485 319.435 C 302.772 316.966 304.259 314.806 304.097 312.215 C 304.045 311.426 304.509 310.316 305.121 309.823 C 307.783 307.662 307.274 304.744 306.839 302.091 C 306.188 298.133 307.515 294.692 308.856 291.206 C 309.487 289.565 310.589 289.519 311.821 290.654 C 312.684 291.574 312.405 292.723 312.412 293.794 C 312.428 310.155 312.428 326.512 312.412 342.874 C 312.412 343.933 312.699 345.095 311.764 345.982 C 310.548 345.939 310.063 345.046 309.705 344.111 C 309.084 342.486 307.827 342.358 306.338 342.342 C 304.721 342.321 303.953 343.244 303.596 344.561 C 303.11 346.347 302.036 346.948 300.235 347.296 C 297.575 347.812 295.051 348.566 292.249 347.983 C 290.835 347.692 291.852 346.304 290.895 346.079 C 290.881 340.044 290.866 334.007 290.855 327.972 L 290.845 327.963 Z" style="stroke-width: 0px; fill: rgb(69, 120, 131); transform-origin: 301.649px 319.036px;" transform="matrix(0, 1, -1, 0, 0, -0.000051498413)"/>
  <path class="cls-4" d="M 141.976 291.537 C 142.707 292.125 142.92 293.503 144.207 293.228 C 146.293 292.788 144.95 290.574 145.962 289.521 C 147.018 289.74 146.613 290.613 146.75 291.199 C 147.154 292.926 147.937 294.051 149.988 293.988 C 152.55 293.907 154.68 294.77 155.684 297.429 C 156.101 298.533 157.005 298.817 158.107 298.749 C 159.162 298.685 159.647 298.094 159.983 297.136 C 160.582 295.439 161.48 293.89 162.902 292.719 C 163.986 294.049 163.359 295.629 163.533 297.091 C 163.244 300.657 164.163 304.288 162.956 307.808 C 162.942 313.816 162.931 319.829 162.916 325.835 C 162.3 330.848 161.875 335.864 162.907 340.875 C 162.907 341.476 162.907 342.082 162.907 342.677 C 161.794 344.395 162.073 346.743 160.174 348.565 C 159.155 345.71 157.779 343.422 158.507 340.25 C 159.177 337.318 158.91 334.428 156.682 331.588 C 154.99 329.435 154.564 326.143 154.001 323.274 C 153.402 320.249 151.903 318.576 148.826 318.652 C 146.949 318.698 145.87 317.723 144.986 316.312 C 144.267 315.172 143.588 314.015 141.956 314.973 C 141.966 307.167 141.97 299.352 141.976 291.542 L 141.976 291.537 Z" style="stroke-width: 0px; fill: rgb(69, 120, 131); transform-origin: 152.777px 319.043px;" transform="matrix(0, 1, -1, 0, -0.00001525879, 0.000015258789)"/>
  <path class="cls-13" d="M 233.608 329.752 C 229.86 327.165 225.783 328.06 221.699 328.495 C 219.915 328.684 218.533 328.797 218.608 331.062 C 218.637 331.913 218.165 332.705 217.348 332.9 C 216.386 333.128 215.879 332.262 215.747 331.51 C 215.354 329.307 213.819 330.497 212.723 330.38 C 212.717 323.538 212.708 316.698 212.702 309.857 C 213.378 307.644 216.685 308.616 216.932 305.114 C 218.202 307.54 219.177 309.004 219.742 310.612 C 220.294 312.177 221.221 312.937 222.703 313.618 C 226.692 315.437 230.439 316.561 233.625 312.295 C 234.385 312.987 234.235 313.924 234.247 314.795 C 234.269 318.948 234.269 323.104 234.247 327.261 C 234.241 328.129 234.385 329.065 233.608 329.752 Z" style="stroke-width: 0px; fill: rgb(69, 120, 131); transform-origin: 223.483px 319.026px;" transform="matrix(0, 1, -1, 0, 0.000015258789, 0.000022888183)"/>
  <path class="cls-9" d="M 139.105 336.057 C 136.97 331.04 137.876 326.026 139.114 321.015 C 139.114 326.026 139.108 331.043 139.105 336.057 Z" style="fill: rgb(69, 120, 131); stroke-width: 0px; transform-origin: 138.468px 328.536px;" transform="matrix(0, 1, -1, 0, 0.000015258787, 0.000015258787)"/>
  <path class="cls-9" d="M 169.029 335.316 C 169.02 331.713 169.013 328.104 169.007 324.501 C 169.368 324.12 169.743 324.115 170.132 324.457 C 170.132 328.072 170.132 331.679 170.132 335.293 C 169.766 335.301 169.4 335.307 169.035 335.316 L 169.029 335.316 Z" style="fill: rgb(69, 120, 131); stroke-width: 0px; transform-origin: 169.57px 329.762px;" transform="matrix(0, 1, -1, 0, 0.00001525878, 0.000015258789)"/>
  <path class="cls-23" d="M 266.488 420.889 C 266.114 420.904 265.739 420.918 265.363 420.933 C 265.354 419.512 265.339 418.083 265.331 416.662 C 265.326 405.443 265.316 394.225 265.314 383.007 C 265.316 377.182 265.326 371.366 265.331 365.544 C 265.322 350.714 265.314 335.881 265.299 321.051 C 265.316 302.609 265.339 284.167 265.36 265.726 C 265.36 256.708 265.36 247.691 265.36 238.667 C 265.728 238.667 266.105 238.667 266.476 238.673 C 266.524 266.134 266.608 293.596 266.623 321.06 C 266.641 353.436 266.601 385.807 266.582 418.185 C 266.582 419.085 266.516 419.985 266.479 420.887 L 266.488 420.889 Z" style="stroke-width: 0px; fill: rgb(69, 120, 131); transform-origin: 265.963px 329.8px;" transform="matrix(0, 1, -1, 0, 0.000030517578, -0.00003814697)"/>
</svg>